<?xml version="1.0" encoding="utf-8"?>
<!-- Generator: Adobe Illustrator 22.1.0, SVG Export Plug-In . SVG Version: 6.00 Build 0)  -->
<svg version="1.1" id="Layer_1" xmlns="http://www.w3.org/2000/svg" xmlns:xlink="http://www.w3.org/1999/xlink" x="0px" y="0px"
	 viewBox="0 0 1280 1024" style="enable-background:new 0 0 1280 1024;" xml:space="preserve">
<style type="text/css">
	.st0{opacity:0.3;fill:#D9DDE2;enable-background:new    ;}
	.st1{fill:#17344F;}
	.st2{fill:#E2C033;}
	.st3{fill:none;}
	.st4{fill:#3D4247;}
	.st5{font-family:'ArialMT';}
	.st6{font-size:19.3458px;}
	.st7{fill:#E8A828;}
	.st8{font-family:'Arial-BoldMT';}
	.st9{font-size:97.5034px;}
</style>
<g>
	
		<image style="overflow:visible;enable-background:new    ;" width="4309" height="3455" xlink:href="85AC9B7497AC89EF.jpeg"  transform="matrix(0.2955 0 0 0.297 1.2027 -1.1941)">
	</image>
</g>
<rect x="300.8" y="237.2" class="st0" width="734.6" height="605.4"/>
<path class="st1" d="M664.1,416.1c0,0-48.7,26.8-1,63.4"/>
<path class="st2" d="M695.5,479.7c0,0,48.7-26.8,1-63.4"/>
<ellipse class="st1" cx="659.7" cy="392.6" rx="13.1" ry="11.9"/>
<ellipse class="st2" cx="699.3" cy="392.6" rx="13.1" ry="11.9"/>
<g>
	<rect x="529" y="610.8" class="st3" width="289.3" height="127.9"/>
	<text transform="matrix(1.052 0 0 1 545.2117 624.663)" class="st4 st5 st6">The easiest way to schedule </text>
	<text transform="matrix(1.052 0 0 1 560.4773 647.8778)" class="st4 st5 st6">and maintain friendships.</text>
</g>
<rect x="549.5" y="502.6" class="st3" width="385.4" height="110.5"/>
<text transform="matrix(1.0732 0 0 1 549.5291 572.3885)" class="st7 st8 st9">hang</text>
</svg>
