<?xml version="1.0" encoding="utf-8"?>
<!-- Generator: Adobe Illustrator 22.1.0, SVG Export Plug-In . SVG Version: 6.00 Build 0)  -->
<svg version="1.1" id="Layer_1" xmlns="http://www.w3.org/2000/svg" xmlns:xlink="http://www.w3.org/1999/xlink" x="0px" y="0px"
	 viewBox="0 0 1280 1024" style="enable-background:new 0 0 1280 1024;" xml:space="preserve">
<style type="text/css">
	.st0{opacity:0.5;}
	.st1{fill:none;}
	.st2{fill:#BFBAAF;}
	.st3{font-family:'Futurama-Bold-Font';}
	.st4{font-size:93.9455px;}
	.st5{fill:#E8A828;}
	.st6{fill:#17344F;}
	.st7{fill:#E2C033;}
	.st8{fill:#3D4247;}
	.st9{font-family:'ArialMT';}
	.st10{font-size:23.4864px;}
</style>
<g>
	<g class="st0">
		<rect x="507.3" y="473.8" class="st1" width="343.2" height="160.5"/>
		<text transform="matrix(1 0 0 1 507.3394 550.1709)" class="st2 st3 st4">hang</text>
	</g>
	<g>
		<rect x="506.3" y="472.8" class="st1" width="343.2" height="160.5"/>
		<text transform="matrix(1 0 0 1 506.3394 549.1709)" class="st5 st3 st4">hang</text>
	</g>
</g>
<path class="st6" d="M622.5,381.4c0,0-56.1,32.6-1.3,77"/>
<path class="st7" d="M658.6,458.7c0,0,56.1-32.7,1.2-77"/>
<ellipse class="st6" cx="617.9" cy="356.7" rx="15" ry="14.4"/>
<ellipse class="st7" cx="663.6" cy="356.7" rx="15" ry="14.4"/>
<g>
	<rect x="476.5" y="615.9" class="st1" width="333.8" height="155.3"/>
	<text transform="matrix(1 0 0 1 495.2607 632.7227)"><tspan x="0" y="0" class="st8 st9 st10">The easiest way to schedule </tspan><tspan x="17.6" y="28.2" class="st8 st9 st10">and maintain friendships.</tspan></text>
</g>
</svg>
