<?xml version="1.0" encoding="utf-8"?>
<!-- Generator: Adobe Illustrator 22.1.0, SVG Export Plug-In . SVG Version: 6.00 Build 0)  -->
<svg version="1.1" id="Layer_1" xmlns="http://www.w3.org/2000/svg" xmlns:xlink="http://www.w3.org/1999/xlink" x="0px" y="0px"
	 viewBox="0 0 500 500" style="enable-background:new 0 0 500 500;" xml:space="preserve">
<style type="text/css">
	.st0{opacity:0.5;}
	.st1{fill:none;}
	.st2{fill:#BFBAAF;}
	.st3{font-family:'Futurama-Bold-Font';}
	.st4{font-size:47.6188px;}
	.st5{fill:#E8A828;}
	.st6{fill:#17344F;}
	.st7{fill:#E2C033;}
	.st8{fill:#3D4247;}
	.st9{font-family:'ArialMT';}
	.st10{font-size:11.9047px;}
</style>
<g>
	<g class="st0">
		<rect x="182.7" y="204.7" class="st1" width="170.5" height="81.3"/>
		<text transform="matrix(0.9803 0 0 1 182.6782 243.4385)" class="st2 st3 st4">hang</text>
	</g>
	<g>
		<rect x="182" y="204.1" class="st1" width="170.5" height="81.3"/>
		<text transform="matrix(0.9803 0 0 1 182.0288 242.7773)" class="st5 st3 st4">hang</text>
	</g>
</g>
<path class="st6" d="M237.7,157.8c0,0-27.9,16.5-0.6,39"/>
<path class="st7" d="M255.7,196.9c0,0,27.9-16.5,0.6-39"/>
<ellipse class="st6" cx="235.2" cy="143.3" rx="7.5" ry="7.3"/>
<ellipse class="st7" cx="257.9" cy="143.3" rx="7.5" ry="7.3"/>
<g>
	<rect x="165.2" y="276.6" class="st1" width="165.9" height="78.7"/>
	<text transform="matrix(0.9803 0 0 1 174.5249 285.1279)" class="st8 st9 st10">The easiest way to schedule </text>
	<text transform="matrix(0.9803 0 0 1 183.2778 299.4131)" class="st8 st9 st10">and maintain friendships.</text>
</g>
</svg>
