<?xml version="1.0" encoding="utf-8"?>
<!-- Generator: Adobe Illustrator 22.1.0, SVG Export Plug-In . SVG Version: 6.00 Build 0)  -->
<svg version="1.1" id="Layer_1" xmlns="http://www.w3.org/2000/svg" xmlns:xlink="http://www.w3.org/1999/xlink" x="0px" y="0px"
	 viewBox="0 0 1024 768" style="enable-background:new 0 0 1024 768;" xml:space="preserve">
<style type="text/css">
	.st0{fill:#0E5DDB;}
	.st1{display:none;opacity:0.81;}
	.st2{opacity:0.43;fill:#FFFFFF;enable-background:new    ;}
	.st3{opacity:0.5;}
	.st4{fill:none;}
	.st5{fill:#BFBAAF;}
	.st6{font-family:'Futurama-Bold-Font';}
	.st7{font-size:72px;}
	.st8{fill:#E8A828;}
	.st9{fill:#17344F;}
	.st10{fill:#E2C033;}
	.st11{fill:#3D4247;}
	.st12{font-family:'ArialMT';}
	.st13{font-size:18px;}
</style>
<path class="st0" d="M-81-46"/>
<g class="st1">
	
		<image style="display:inline;overflow:visible;enable-background:new    ;" width="4038" height="3012" xlink:href="CEDB77E68AC5D4A9.jpeg"  transform="matrix(0.2547 0 0 0.2551 -1.3996 -0.799)">
	</image>
</g>
<rect x="239.6" y="140.5" class="st2" width="563" height="464"/>
<g>
	<g class="st3">
		<rect x="423.3" y="342.7" class="st4" width="263" height="123"/>
		<text transform="matrix(1 0 0 1 423.3313 401.2477)" class="st5 st6 st7">hang</text>
	</g>
	<g>
		<rect x="422.3" y="341.7" class="st4" width="263" height="123"/>
		<text transform="matrix(1 0 0 1 422.3313 400.2477)" class="st8 st6 st7">hang</text>
	</g>
</g>
<path class="st9" d="M511.3,271.7c0,0-43,25-1,59"/>
<path class="st10" d="M539,330.9c0,0,43-25,0.9-59"/>
<ellipse class="st9" cx="507.4" cy="249.8" rx="11.5" ry="11"/>
<ellipse class="st10" cx="542.4" cy="249.8" rx="11.5" ry="11"/>
<g>
	<rect x="399.4" y="451.4" class="st4" width="255.9" height="119"/>
	<text transform="matrix(1 0 0 1 413.8412 464.2826)" class="st11 st12 st13">The easiest way to schedule </text>
	<text transform="matrix(1 0 0 1 427.3412 485.8826)" class="st11 st12 st13">and maintain friendships.</text>
</g>
</svg>
